<svg xmlns="http://www.w3.org/2000/svg" width="20" height="18">
    <path fill="#222" d="m10.121 3.713.314-.314c.782-.789 2.346-2.112 3.938-2.112 2.782 0 4.377 1.577 4.377 4.327 0 2.015-1.668 3.793-2.203 4.314L10.24 16.12a.34.34 0 0 1-.48 0L3.418 9.886c-.022-.019-2.17-2.024-2.17-4.272 0-2.75 1.594-4.327 4.376-4.327 1.593 0 3.153 1.323 3.94 2.112l.314.314a.17.17 0 0 0 .242 0M10 2.061C8.99 1.15 7.379 0 5.625 0 2.155 0 0 2.15 0 5.614c0 2.882 2.574 5.22 2.579 5.223l7.18 7.064a.342.342 0 0 0 .48 0l7.19-7.062c.603-.587 2.571-2.7 2.571-5.226C20 2.149 17.843 0 14.373 0 12.62 0 11.003 1.151 10 2.06"/>
</svg>