<?xml version="1.0" encoding="UTF-8"?>
<svg id="Layer_1" data-name="Layer 1" xmlns="http://www.w3.org/2000/svg" version="1.1" viewBox="0 0 20.2 20">
  <defs>
    <style>
      .cls-1 {
        fill: #000;
        stroke-width: 0px;
      }
    </style>
  </defs>
  <path class="cls-1" d="M20.1,18.9c.1-.2.1-.4,0-.6,0,0,0,0,0,0l-2.6-2.1-.5-.4-.6-.5c3.3-3.9,2.9-9.8-1-13.1C11.5-1.1,5.6-.7,2.2,3.2c-3.3,3.9-2.9,9.8,1,13.1,1.7,1.4,3.8,2.2,6.1,2.2,2,0,3.9-.6,5.5-1.8l1.1.9,2.8,2.3c.2.1.4.1.6,0l.8-1ZM9.3,16.8c-4.2,0-7.6-3.4-7.6-7.6S5.1,1.7,9.3,1.7s7.6,3.4,7.6,7.6,0,0,0,0c0,4.2-3.4,7.6-7.6,7.6h0Z"/>
</svg>