<svg xmlns="http://www.w3.org/2000/svg" width="20" height="20">
  <path fill="#222" d="M17.734 4.784a.374.374 0 0 0-.365-.325h-2.454C14.566 1.901 12.472 0 10.002 0S5.437 1.9 5.088 4.459H2.632a.374.374 0 0 0-.365.325L.002 19.778a.2.2 0 0 0 .043.156.181.181 0 0 0 .142.066h19.629a.18.18 0 0 0 .14-.067.2.2 0 0 0 .042-.155L17.734 4.784Zm-7.73-3.31c1.69.002 3.144 1.25 3.475 2.985H6.524c.33-1.736 1.785-2.988 3.477-2.99l.002.006Zm7.975 17.08H2.025a.362.362 0 0 1-.28-.135.398.398 0 0 1-.084-.31L3.453 6.23a.374.374 0 0 1 .364-.325h12.368c.181 0 .336.138.364.325l1.796 11.874a.398.398 0 0 1-.085.313.361.361 0 0 1-.284.133l.003.004Z"/>
</svg>