<svg xmlns="http://www.w3.org/2000/svg" width="20" height="20">
  <path fill="#222" d="M19.952 19.217c-.597-3.925-3.549-7.118-7.49-8.1 2.485-1.274 3.744-4.05 3.04-6.7-.704-2.651-3.186-4.48-5.992-4.415-2.806.064-5.197 2.005-5.773 4.686-.575 2.68.817 5.394 3.36 6.552-3.73 1.109-6.471 4.214-7.043 7.977l-.05.31A.415.415 0 0 0 .428 20h19.148c.123 0 .24-.052.32-.143a.407.407 0 0 0 .1-.33l-.044-.31ZM5.013 5.897c0-2.499 2.077-4.525 4.639-4.525 2.562 0 4.639 2.026 4.639 4.526s-2.077 4.526-4.639 4.526c-2.56-.003-4.636-2.028-4.639-4.526ZM2.16 18.629a.428.428 0 0 1-.348-.165.405.405 0 0 1-.065-.372c1.13-3.517 4.471-5.91 8.25-5.91 3.778 0 7.12 2.393 8.25 5.91a.405.405 0 0 1-.066.372.428.428 0 0 1-.347.165H2.16Z"/>
</svg>